<svg width="24" height="24" viewBox="0 0 24 24" fill="none" xmlns="http://www.w3.org/2000/svg">
<g clip-path="url(#clip0_5_28)">
<path d="M12 6C12.7911 6 13.5645 6.2346 14.2223 6.67412C14.8801 7.11365 15.3928 7.73836 15.6955 8.46927C15.9983 9.20017 16.0775 10.0044 15.9231 10.7804C15.7688 11.5563 15.3878 12.269 14.8284 12.8284C14.269 13.3878 13.5563 13.7688 12.7804 13.9231C12.0044 14.0775 11.2002 13.9983 10.4693 13.6955C9.73836 13.3928 9.11365 12.8801 8.67412 12.2223C8.23459 11.5645 8 10.7911 8 10C8 8.93913 8.42142 7.92172 9.17157 7.17157C9.92172 6.42143 10.9391 6 12 6ZM12 12C12.3956 12 12.7822 11.8827 13.1111 11.6629C13.44 11.4432 13.6964 11.1308 13.8478 10.7654C13.9991 10.3999 14.0387 9.99778 13.9616 9.60982C13.8844 9.22186 13.6939 8.86549 13.4142 8.58579C13.1345 8.30608 12.7781 8.1156 12.3902 8.03843C12.0022 7.96126 11.6001 8.00087 11.2346 8.15224C10.8692 8.30362 10.5568 8.55996 10.3371 8.88886C10.1173 9.21776 10 9.60444 10 10C10 10.5304 10.2107 11.0391 10.5858 11.4142C10.9609 11.7893 11.4696 12 12 12Z" fill="#AAAAAA"/>
<path d="M12 24.0001C12.842 24.0044 13.6729 23.8069 14.4229 23.4241C15.173 23.0413 15.8204 22.4844 16.311 21.8C20.122 16.543 22.055 12.591 22.055 10.053C22.055 7.3863 20.9956 4.82877 19.11 2.94309C17.2243 1.05741 14.6667 -0.00195312 12 -0.00195312C9.33324 -0.00195312 6.77571 1.05741 4.89003 2.94309C3.00436 4.82877 1.94499 7.3863 1.94499 10.053C1.94499 12.591 3.87799 16.543 7.68899 21.8C8.17959 22.4844 8.82701 23.0413 9.57706 23.4241C10.3271 23.8069 11.1579 24.0044 12 24.0001ZM12 2.18105C14.0876 2.18343 16.089 3.01377 17.5651 4.48992C19.0413 5.96606 19.8716 7.96746 19.874 10.055C19.874 12.065 17.981 15.782 14.545 20.521C14.2533 20.9228 13.8706 21.2498 13.4283 21.4753C12.9859 21.7008 12.4965 21.8183 12 21.8183C11.5035 21.8183 11.014 21.7008 10.5717 21.4753C10.1294 21.2498 9.74669 20.9228 9.45499 20.521C6.01899 15.782 4.12599 12.065 4.12599 10.055C4.12837 7.96746 4.95872 5.96606 6.43486 4.48992C7.91101 3.01377 9.91241 2.18343 12 2.18105Z" fill="#AAAAAA"/>
</g>
<defs>
<clipPath id="clip0_5_28">
<rect width="24" height="24" fill="white" transform="matrix(-1 0 0 1 24 0)"/>
</clipPath>
</defs>
</svg>
